<svg width="550" height="539" viewBox="0 0 550 539" fill="none" xmlns="http://www.w3.org/2000/svg">
<path d="M524.2 268.1C524.2 131.1 413.1 20 276.1 20C139.1 20 28 131.1 28 268.1C28 405.1 139.1 516.2 276.1 516.2C413.1 516.2 524.2 405.1 524.2 268.1Z" fill="#76C9F8"/>
<path d="M298 137C298 137 341.8 88.2 374.1 122.1C380.3 128.6 384.8 147.1 390.7 160.4C390.7 160.4 404 187.7 418.8 193.6C418.8 193.6 432.1 203.2 436.5 205.4C436.5 205.4 447.6 209.1 441.7 215.7C441.7 215.7 424.7 234.2 418.1 243C418.1 243 393 270.3 384.9 296.9C384.9 296.9 368.9 358.3 310.5 382C310.5 382 274 455.8 237.1 458C237.1 458 178.7 461.7 149.2 420.3C149.2 420.3 123.5 378.7 146.2 317.8C153.7 297.6 163.9 281.4 173.5 268.9C173.5 268.9 161.7 242.3 154.3 234.2C154.3 234.2 140.3 217.9 149.9 215C149.9 215 177.8 200.5 186.7 187.9C186.7 187.9 219.6 133.1 231 124.5C246.5 112.7 267.2 108.1 274.8 110.8C285.1 114.5 292.3 122.5 298 137Z" fill="#EA4949"/>
<path d="M171.3 222.4C171.3 222.4 213.4 169.2 251.1 175.1C251.1 175.1 266.6 181 274 186.9C274 186.9 287.3 189.9 299.1 183.2C299.1 183.2 333.8 164.7 350.1 182.5C350.1 182.5 371 203 377.4 207.6C377.4 207.6 395.9 215.7 410.6 216.5C410.6 216.5 366.3 265.3 355.9 284.5C355.9 284.5 330.8 351.7 327.1 362.8C322.5 369.5 322.7 360.6 319 362.8C315.3 365 305.1 398.409 301 404C298.8 407 276.8 449.2 245.8 452.9L189.6 249.7C189.7 249.7 181.6 233.5 171.3 222.4Z" fill="#1E181A"/>
<path d="M284.7 232C284.7 232 357.8 248.9 380.5 198.5C380.5 198.5 371.8 227.7 392.5 238C392.5 238 361.1 260.3 345 288C345 288 313 337 300 389.5C300 389.5 274.5 454.1 237.6 456.3C237.6 456.3 178.3 466.3 149.1 420.3C149.1 420.3 123.3 377.9 146 317C153.5 296.8 164.9 287 174.5 274.5C174.5 274.5 192.7 247.6 237.6 214C237.7 214 264.2 230.9 284.7 232Z" fill="#EA4949"/>
<path d="M240.7 197.3C240.7 197.3 243.7 217.2 268 213.6C268 213.6 282.8 209.2 288.7 203.3C288.7 203.3 301.3 215.9 312.3 215.9C312.3 215.9 330 217.4 344.1 201.9C344.1 201.9 350 224.8 377.3 207.8C371.2 203.4 350 182.7 350 182.7C333.7 165 299 183.4 299 183.4C287.2 190 273.9 187.1 273.9 187.1C266.6 181 251.1 175.1 251.1 175.1C237.2 172.9 222.8 178.7 210.1 187C212.5 192.4 220.1 202.8 240.7 197.3Z" fill="#F8F9FE"/>
<path d="M222.4 265.8C214.1 276.9 194.5 304.7 189.5 322.5C189.5 322.5 182 341 182 350C182 359 183.3 368.9 175.5 369.4C167.7 369.9 165 358.9 168.3 341.7C168.3 341.7 178 299 202.7 271.3C213.6 259 227.1 246.4 231 244.7C231 244.7 238.2 244.1 235.4 248C235.4 248.1 230.7 254.7 222.4 265.8Z" fill="#F8F9FE"/>
<path d="M327.8 251.1C326.1 252.7 311.3 270.5 305.2 281.3C299.9 290.7 286.4 320.6 281.4 334.5C276.4 348.4 263.1 378.3 260.9 381C258.7 383.8 254.5 392.5 255.9 398.7C258 404 262.5 411.4 275.3 403.7C275.3 403.7 288 389.3 291.4 369.9C291.4 369.9 303.9 321.1 309.7 306.2C315.5 291.2 323.5 275 326.6 269.9C333.2 258.8 344.1 249.8 342.7 245.4C341.6 242.2 336.1 243.4 327.8 251.1Z" fill="#F8F9FE"/>
<path d="M221.291 378.528C220.77 377.168 220.333 374.496 220.632 364.23C221.239 343.798 228.961 303.865 269.18 248.819L290.16 251.084C290.16 251.084 273.287 263.515 266.865 271.51C260.442 279.505 229.001 315.707 224.98 377.098C224.707 380.837 222.46 381.537 221.291 378.528Z" fill="#22191E"/>
<path d="M337.3 135.3C337.3 135.3 340.6 132.5 346.2 135.3C346.2 135.3 353.7 142.8 361.2 138.1C361.2 138.1 370.1 133.7 364 124.5C364 124.5 357.9 115.9 343.8 118.7C343.8 118.7 328.8 122.9 326.3 128.1C326.3 128.1 321.6 134.5 326.9 137C326.8 137 333.2 138.3 337.3 135.3Z" fill="#F8F9FE"/>
<path d="M255.9 137C255.9 137 259.2 134.2 264.8 137C264.8 137 272.3 144.5 279.8 139.8C279.8 139.8 288.7 135.4 282.6 126.2C282.6 126.2 276.5 117.6 262.4 120.4C262.4 120.4 247.4 124.6 244.9 129.8C244.9 129.8 240.2 136.2 245.5 138.7C245.3 138.6 251.7 140 255.9 137Z" fill="#F8F9FE"/>
<path d="M230.58 414.822C230.58 434.704 242.902 455.822 231.58 455.822C221.58 451.322 213.08 437.322 214.08 429.322C215.08 421.322 220.58 403.152 232.58 391.822C241.08 385.822 230.58 394.939 230.58 414.822Z" fill="#76C9F8"/>
<path d="M225.238 423.426C226.435 430.505 230.267 440.324 229.178 440.508C228.089 440.692 224.811 438.893 223.614 431.814C222.417 424.735 223.755 415.056 224.844 414.872C225.933 414.688 224.572 419.482 225.238 423.426Z" fill="white"/>
</svg>
