<svg width="218" height="234" viewBox="0 0 218 234" fill="none" xmlns="http://www.w3.org/2000/svg">
<path d="M173 28C190 17 170.161 6.76256 146.399 2.2481C122.636 -2.26637 98.0052 0.050621 75.6213 8.90608C53.2373 17.7615 34.1054 32.7577 20.645 51.9983C7.18449 71.2388 -3.65836e-06 93.8596 0 117C3.65836e-06 140.14 7.18451 162.761 20.645 182.002C34.1055 201.242 53.2374 216.238 75.6213 225.094C98.0052 233.949 122.636 236.266 146.399 231.752C208.5 214.5 223 191 215 132L179 117L186.5 166.5L173 191L146.399 199.731H122.5L75.6213 182.002L51 154L43 117L51 83L75.6213 51.9983L122.5 34.2685L152 41L173 28Z" fill="#76C9F8"/>
<path d="M137.5 125C163.128 208 134 184 118.5 175.5C109.372 168.5 79 140.332 79 102.5C79 64.6685 91.2076 129 107.5 129C123.792 129 129.5 93.5 137.5 125Z" fill="#F1A0C2"/>
</svg>
